<?xml version="1.0" encoding="iso-8859-1"?>
<!-- Generator: Adobe Illustrator 19.0.0, SVG Export Plug-In . SVG Version: 6.00 Build 0)  -->
<svg version="1.1" id="Capa_1" xmlns="http://www.w3.org/2000/svg" xmlns:xlink="http://www.w3.org/1999/xlink" x="0px" y="0px"
	 viewBox="0 0 512 512" style="enable-background:new 0 0 512 512;" xml:space="preserve">
<circle style="fill:#34ABE0;" cx="256" cy="256" r="256"/>
<path style="fill:#EF4152;" d="M244.535,108.991c0,0-65.662-29.061-126.645,33.52c-7.986,8.195-3.187,21.794,8.117,23.573
	c16.646,2.62,36.756,13.722,50.613,47.654"/>
<path style="fill:#FF525D;" d="M407.835,272.291c0,0,29.061,65.662-33.52,126.645c-8.195,7.986-21.794,3.187-23.573-8.117
	c-2.62-16.646-13.722-36.756-47.654-50.613"/>
<path style="fill:#EF4152;" d="M328.965,255.843v0.01l-50.772,68.89c-3.636,4.942-10.815,5.486-15.161,1.139l-72.098-72.098
	c-4.336-4.336-3.793-11.515,1.149-15.151l68.89-50.772l27.199,27.199L328.965,255.843z"/>
<path style="fill:#FF525D;" d="M328.965,255.854l-50.772,68.89c-3.636,4.942-10.815,5.486-15.161,1.139l-44.899-44.899
	c-4.347-4.336-3.803-11.525,1.139-15.161l68.901-50.761L328.965,255.854z"/>
<path style="fill:#F9EED7;" d="M261.746,255.08c23.874,23.874,37.628,54.015,41.342,85.127
	c38.181-14.537,73.987-37.156,104.747-67.915c67.823-67.823,96.206-160.141,85.176-248.476
	c-88.336-11.03-180.652,17.353-248.476,85.176c-30.76,30.76-53.379,66.567-67.915,104.747
	C207.731,217.453,237.872,231.207,261.746,255.08z"/>
<path style="fill:#E8DBC4;" d="M284.102,148.549c-24.875,24.875-46.505,50.956-64.592,77.179
	c-13.709-6.253-28.202-10.239-42.89-11.989c14.544-38.172,37.153-73.986,67.919-104.753
	c67.817-67.817,160.138-96.194,248.473-85.173C428.748,36.864,351.918,80.733,284.102,148.549z"/>
<circle style="fill:#FF525D;" cx="368.097" cy="148.731" r="64.094"/>
<circle style="fill:#5C5E70;" cx="368.097" cy="148.731" r="39.717"/>
<g>
	<path style="fill:#FFD15C;" d="M498.605,279.982h-13.745c-6.7,0-12.13-5.431-12.13-12.13v-13.745c0-3.002-2.194-5.682-5.183-5.966
		c-3.427-0.327-6.311,2.359-6.311,5.72v13.992c0,6.7-5.431,12.13-12.13,12.13h-13.745c-3.002,0-5.682,2.194-5.966,5.183
		c-0.327,3.427,2.359,6.311,5.72,6.311h13.992c6.7,0,12.13,5.431,12.13,12.13v13.745c0,3.002,2.194,5.682,5.183,5.966
		c3.427,0.327,6.311-2.359,6.311-5.72v-13.992c0-6.7,5.431-12.13,12.13-12.13h13.992c3.36,0,6.047-2.884,5.72-6.311
		C504.287,282.178,501.606,279.982,498.605,279.982z"/>
	<path style="fill:#FFD15C;" d="M192.987,41.235h-13.745c-6.7,0-12.13-5.431-12.13-12.13V15.36c0-3.002-2.194-5.682-5.183-5.966
		c-3.427-0.327-6.311,2.359-6.311,5.72v13.992c0,6.7-5.431,12.13-12.13,12.13h-13.745c-3.002,0-5.682,2.194-5.966,5.183
		c-0.327,3.427,2.359,6.311,5.72,6.311h13.992c6.7,0,12.13,5.431,12.13,12.13v13.745c0,3.002,2.194,5.682,5.183,5.966
		c3.427,0.327,6.311-2.359,6.311-5.72V64.86c0-6.7,5.431-12.13,12.13-12.13h13.992c3.36,0,6.047-2.884,5.72-6.311
		C198.67,43.43,195.989,41.235,192.987,41.235z"/>
	<path style="fill:#FFD15C;" d="M131.864,232.442h-13.745c-6.7,0-12.13-5.431-12.13-12.13v-13.745c0-3.002-2.194-5.682-5.183-5.966
		c-3.427-0.327-6.311,2.359-6.311,5.72v13.992c0,6.7-5.431,12.13-12.13,12.13H68.619c-3.002,0-5.682,2.194-5.966,5.183
		c-0.327,3.427,2.359,6.311,5.72,6.311h13.992c6.7,0,12.13,5.431,12.13,12.13v13.745c0,3.002,2.194,5.682,5.183,5.966
		c3.427,0.327,6.311-2.359,6.311-5.72v-13.992c0-6.7,5.431-12.13,12.13-12.13h13.992c3.36,0,6.047-2.884,5.72-6.311
		C137.546,234.636,134.866,232.442,131.864,232.442z"/>
</g>
<path style="fill:#F9EED7;" d="M246.262,511.812c-96.622-3.615-179.545-60.761-219.951-142.66
	C11.16,338.463,1.985,304.306,0.293,268.194c5.747,2.539,11.139,6.175,15.851,10.888c4.253,4.253,7.617,9.07,10.104,14.19
	c26.561-6.949,56.007-0.031,76.821,20.783c9.383,9.394,15.935,20.543,19.675,32.381l52.6-52.611c5.81-5.81,15.214-5.81,21.023,0
	l26.624,26.634c5.81,5.81,5.81,15.214,0,21.023l-52.6,52.6c11.839,3.741,22.988,10.292,32.381,19.675
	c20.814,20.814,27.732,50.26,20.783,76.821c5.12,2.487,9.937,5.851,14.19,10.104C241.142,504.08,243.984,507.831,246.262,511.812z"
	/>
<path style="fill:#E8DBC4;" d="M196.368,293.825l-83.143,83.143c0,0-9.216-21.755-54.659-21.755
	c-14.273,0-24.691,5.872-32.256,13.939C11.16,338.463,1.985,304.306,0.293,268.194c5.747,2.539,11.139,6.175,15.851,10.888
	c4.253,4.253,7.617,9.07,10.104,14.19c26.561-6.949,56.007-0.031,76.821,20.783c9.383,9.394,15.935,20.543,19.675,32.381
	l52.6-52.611C181.154,288.016,190.558,288.016,196.368,293.825z"/>
<g>
</g>
<g>
</g>
<g>
</g>
<g>
</g>
<g>
</g>
<g>
</g>
<g>
</g>
<g>
</g>
<g>
</g>
<g>
</g>
<g>
</g>
<g>
</g>
<g>
</g>
<g>
</g>
<g>
</g>
</svg>
